<?xml version="1.0" standalone="no"?>
<!DOCTYPE svg PUBLIC "-//W3C//DTD SVG 20010904//EN"
 "http://www.w3.org/TR/2001/REC-SVG-20010904/DTD/svg10.dtd">
<svg version="1.0" xmlns="http://www.w3.org/2000/svg"
 width="360.000000pt" height="360.000000pt" viewBox="0 0 360.000000 360.000000"
 preserveAspectRatio="xMidYMid meet">

<g transform="translate(0.000000,360.000000) scale(0.100000,-0.100000)"
fill="#000000" stroke="none">
<path d="M1715 2710 c-213 -46 -424 -200 -507 -370 -51 -103 -68 -183 -68
-325 -1 -210 -17 -437 -35 -486 -9 -26 -32 -66 -52 -89 l-36 -42 17 -54 c56
-178 186 -352 309 -412 59 -29 163 -59 173 -50 2 3 -12 33 -31 69 -86 159 -85
377 1 629 4 12 -10 22 -50 39 -30 12 -76 41 -102 64 -83 73 -103 156 -63 262
20 54 21 55 59 55 118 0 266 -88 344 -204 l26 -39 0 -242 0 -242 48 -40 48
-41 50 43 49 43 -3 236 -4 236 25 43 c62 105 198 192 319 204 l65 6 18 -44
c25 -62 24 -154 -3 -205 -27 -53 -82 -101 -151 -131 -31 -14 -57 -26 -59 -27
-1 -2 7 -28 17 -59 39 -112 54 -215 49 -337 -6 -125 -21 -184 -70 -264 -16
-26 -27 -50 -25 -52 2 -2 28 0 58 6 149 28 279 142 368 323 27 56 55 121 62
145 12 41 11 44 -19 75 -17 18 -41 55 -53 82 -21 46 -23 72 -31 330 -5 180
-14 305 -23 350 -49 223 -233 411 -485 494 -74 25 -177 34 -235 21z"/>
</g>
</svg>
